<!DOCTYPE svg PUBLIC "-//W3C//DTD SVG 1.1//EN" "http://www.w3.org/Graphics/SVG/1.1/DTD/svg11.dtd">
<!-- Uploaded to: SVG Repo, www.svgrepo.com, Transformed by: SVG Repo Mixer Tools -->
<svg fill="#ffffff" width="800px" height="800px" viewBox="0 0 32 32" xmlns="http://www.w3.org/2000/svg" stroke="#ffffff">
<g id="SVGRepo_bgCarrier" stroke-width="0"/>
<g id="SVGRepo_tracerCarrier" stroke-linecap="round" stroke-linejoin="round"/>
<g id="SVGRepo_iconCarrier">
<title/>
<path d="M24,5H22V4a1,1,0,0,0-1-1H11a1,1,0,0,0-1,1V5H8A1,1,0,0,0,7,6V28a1,1,0,0,0,1,1H24a1,1,0,0,0,1-1V6A1,1,0,0,0,24,5ZM12,5h8V7H12V5ZM23,27H9V7h1V8a1,1,0,0,0,1,1H21a1,1,0,0,0,1-1V7h1ZM21,12a1,1,0,0,1-1,1H12a1,1,0,0,1,0-2h8A1,1,0,0,1,21,12Zm0,4a1,1,0,0,1-1,1H12a1,1,0,0,1,0-2h8A1,1,0,0,1,21,16Zm0,4a1,1,0,0,1-1,1H12a1,1,0,0,1,0-2h8A1,1,0,0,1,21,20Zm0,4a1,1,0,0,1-1,1H12a1,1,0,0,1,0-2h8A1,1,0,0,1,21,24Z"/>
</g>
</svg>